{
  "version": "1.dev.2db08f1",
  "modules": [
    {
      "id": 66,
      "plugin": "Core",
      "version": "1.1.6",
      "model": "AudioInterface",
      "params": [],
      "leftModuleId": 90,
      "data": {
        "audio": {
          "driver": 8,
          "deviceName": "Speakers (Realtek(R) Audio)",
          "offset": 0,
          "maxChannels": 8,
          "sampleRate": 44100,
          "blockSize": 256
        }
      },
      "pos": [
        35,
        0
      ]
    },
    {
      "id": 69,
      "plugin": "Fundamental",
      "version": "1.4.0",
      "model": "ADSR",
      "params": [
        {
          "id": 0,
          "value": 0.0
        },
        {
          "id": 1,
          "value": 0.5
        },
        {
          "id": 2,
          "value": 0.5
        },
        {
          "id": 3,
          "value": 0.453000963
        }
      ],
      "leftModuleId": 87,
      "rightModuleId": 91,
      "pos": [
        18,
        0
      ]
    },
    {
      "id": 87,
      "plugin": "RareBreeds_Orbits",
      "version": "1.1.0",
      "model": "RareBreeds_Orbits_Eugene",
      "params": [
        {
          "id": 0,
          "value": 24.4598503
        },
        {
          "id": 1,
          "value": 0.655119598
        },
        {
          "id": 2,
          "value": 0.0
        },
        {
          "id": 3,
          "value": 0.290428221
        },
        {
          "id": 4,
          "value": 0.263584077
        },
        {
          "id": 5,
          "value": 0.627483547
        },
        {
          "id": 6,
          "value": 1.0
        },
        {
          "id": 7,
          "value": 0.0
        }
      ],
      "leftModuleId": 89,
      "rightModuleId": 69,
      "data": {
        "widget": {
          "theme": "Dark"
        }
      },
      "pos": [
        6,
        0
      ]
    },
    {
      "id": 89,
      "plugin": "Fundamental",
      "version": "1.4.0",
      "model": "LFO2",
      "params": [
        {
          "id": 0,
          "value": 0.0
        },
        {
          "id": 1,
          "value": 1.0
        },
        {
          "id": 2,
          "value": 2.02600026
        },
        {
          "id": 3,
          "value": 1.5
        },
        {
          "id": 4,
          "value": 0.5
        }
      ],
      "rightModuleId": 87,
      "pos": [
        0,
        0
      ]
    },
    {
      "id": 90,
      "plugin": "Fundamental",
      "version": "1.4.0",
      "model": "VCA-1",
      "params": [
        {
          "id": 0,
          "value": 1.0
        },
        {
          "id": 1,
          "value": 1.0
        }
      ],
      "leftModuleId": 91,
      "rightModuleId": 66,
      "pos": [
        32,
        0
      ]
    },
    {
      "id": 91,
      "plugin": "Fundamental",
      "version": "1.4.0",
      "model": "VCO2",
      "params": [
        {
          "id": 0,
          "value": 1.0
        },
        {
          "id": 1,
          "value": 1.0
        },
        {
          "id": 2,
          "value": 0.0
        },
        {
          "id": 3,
          "value": 0.0
        },
        {
          "id": 4,
          "value": 0.0
        }
      ],
      "leftModuleId": 69,
      "rightModuleId": 90,
      "pos": [
        26,
        0
      ]
    }
  ],
  "cables": [
    {
      "id": 68,
      "outputModuleId": 89,
      "outputId": 0,
      "inputModuleId": 87,
      "inputId": 0,
      "color": "#c9b70e"
    },
    {
      "id": 69,
      "outputModuleId": 87,
      "outputId": 0,
      "inputModuleId": 69,
      "inputId": 4,
      "color": "#0c8e15"
    },
    {
      "id": 70,
      "outputModuleId": 69,
      "outputId": 0,
      "inputModuleId": 90,
      "inputId": 0,
      "color": "#c91847"
    },
    {
      "id": 71,
      "outputModuleId": 91,
      "outputId": 0,
      "inputModuleId": 90,
      "inputId": 1,
      "color": "#0986ad"
    },
    {
      "id": 72,
      "outputModuleId": 90,
      "outputId": 0,
      "inputModuleId": 66,
      "inputId": 0,
      "color": "#c9b70e"
    },
    {
      "id": 73,
      "outputModuleId": 90,
      "outputId": 0,
      "inputModuleId": 66,
      "inputId": 1,
      "color": "#0c8e15"
    }
  ]
}